<?xml version="1.0" encoding="UTF-8" standalone="no"?>
<!DOCTYPE svg PUBLIC "-//W3C//DTD SVG 1.1//EN" "http://www.w3.org/Graphics/SVG/1.1/DTD/svg11.dtd">
<svg width="100%" height="100%" viewBox="0 0 119 43" version="1.1" xmlns="http://www.w3.org/2000/svg" xmlns:xlink="http://www.w3.org/1999/xlink" xml:space="preserve" xmlns:serif="http://www.serif.com/" style="fill-rule:evenodd;clip-rule:evenodd;stroke-linejoin:round;stroke-miterlimit:2;">
    <g id="Artboard1" transform="matrix(1,0,0,1,-15.0099,-10.8)">
        <rect x="15.01" y="10.8" width="118.295" height="42.301" style="fill:none;"/>
        <g transform="matrix(1,0,0,1,-0.475472,0.589813)">
            <rect x="43.815" y="25.464" width="6.83" height="25.022" style="fill:rgb(0,37,77);fill-rule:nonzero;"/>
        </g>
        <g transform="matrix(1,0,0,1,-0.475472,0.589813)">
            <path d="M42.993,18.978C42.993,21.216 44.893,23.098 47.204,23.098C49.566,23.098 51.414,21.216 51.414,18.978C51.414,16.639 49.566,14.757 47.204,14.757C44.893,14.757 42.993,16.639 42.993,18.978Z" style="fill:rgb(0,37,77);fill-rule:nonzero;"/>
        </g>
        <g transform="matrix(1,0,0,1,-0.475472,0.589813)">
            <path d="M68.912,25.362C68.383,25.301 67.852,25.267 67.32,25.26C65.163,25.26 61.672,25.874 60.131,29.174L60.131,25.464L53.507,25.464L53.507,50.482L60.337,50.482L60.337,39.043C60.337,33.652 63.366,31.974 66.858,31.974C67.548,31.973 68.236,32.041 68.912,32.177L68.912,25.362Z" style="fill:rgb(0,37,77);fill-rule:nonzero;"/>
        </g>
        <g transform="matrix(1,0,0,1,-0.475472,0.589813)">
            <rect x="98.505" y="25.464" width="6.83" height="25.022" style="fill:rgb(0,37,77);fill-rule:nonzero;"/>
        </g>
        <g transform="matrix(1,0,0,1,-0.475472,0.589813)">
            <path d="M88.955,14.972L88.955,27.956C88.235,26.633 86.181,24.854 81.816,24.854C74.679,24.854 69.698,30.6 69.698,37.924C69.698,45.502 74.833,51.096 82.019,51.096C85.408,51.096 87.976,49.571 89.105,47.587C89.108,48.559 89.194,49.528 89.362,50.485L95.883,50.485C95.78,49.469 95.678,47.637 95.678,45.958L95.678,16.003L88.955,14.972ZM82.844,45.044C79.249,45.044 76.579,42.4 76.579,37.924C76.579,33.448 79.352,30.906 82.844,30.906C86.336,30.906 89.057,33.398 89.057,37.873C89.056,42.4 86.335,45.044 82.843,45.044L82.844,45.044Z" style="fill:rgb(0,37,77);fill-rule:nonzero;"/>
        </g>
        <g transform="matrix(1,0,0,1,-0.475472,0.589813)">
            <path d="M29.863,24.803C26.114,24.803 23.342,26.43 22.212,28.21L22.212,15.01L15.485,16.039L15.485,50.489L22.109,50.489L22.109,47.434C23.444,49.571 26.114,51.096 29.607,51.096C36.795,51.096 41.519,45.451 41.519,37.873C41.519,30.448 37.258,24.803 29.863,24.803ZM28.425,45.044C24.985,45.044 22.109,42.45 22.109,37.924C22.109,33.347 24.985,30.855 28.425,30.855C31.917,30.855 34.69,33.347 34.69,37.924C34.69,42.501 31.917,45.044 28.425,45.044Z" style="fill:rgb(0,37,77);fill-rule:nonzero;"/>
        </g>
        <g transform="matrix(1,0,0,1,-0.475472,0.589813)">
            <path d="M132.515,37.681C132.515,29.646 127.843,24.712 120.04,24.712C113.57,24.712 107.613,29.9 107.613,37.884C107.613,46.326 113.724,51.26 120.656,51.26C126.87,51.26 130.875,47.653 132.158,43.326L126.459,41.646C125.637,43.884 123.891,45.46 120.707,45.46C117.319,45.46 114.494,43.07 114.34,39.764L132.415,39.764C132.413,39.662 132.515,38.645 132.515,37.681ZM114.492,35.139C114.647,32.85 116.597,30.205 120.14,30.205C124.043,30.205 125.686,32.646 125.789,35.139L114.492,35.139Z" style="fill:rgb(0,37,77);fill-rule:nonzero;"/>
        </g>
        <g transform="matrix(1,0,0,1,-0.475472,0.589813)">
            <path d="M110.852,18.921C110.852,18.921 105.034,22.585 102.363,23.052C102.065,23.099 101.763,23.11 101.462,23.085C99.358,22.883 97.685,21.102 97.685,18.921C97.685,16.739 99.358,14.957 101.462,14.756C101.763,14.73 102.065,14.741 102.363,14.789C105.034,15.255 110.852,18.921 110.852,18.921Z" style="fill:rgb(84,197,193);fill-rule:nonzero;"/>
        </g>
    </g>
</svg>
